<?xml version="1.0" encoding="UTF-8"?>
<!-- Generated by jsxcad -->
<!DOCTYPE svg PUBLIC "-//W3C//DTD SVG 1.1 Tiny//EN" "http://www.w3.org/Graphics/SVG/1.1/DTD/svg11-tiny.dtd">
<svg baseProfile="tiny" height="12.00000mm" width="130.00000mm" viewBox="-0.00000 -0.00000 130.00000 12.00000" version="1.1" stroke="black" stroke-width=".1" fill="none" xmlns="http://www.w3.org/2000/svg">
<path fill="#000000" stroke="#000000" d="M0.00000 0.00000 L130.00000 0.00000 L130.00000 12.00000 L0.00000 12.00000 z M11.98614 5.66724 L11.66425 4.39585 L10.94269 3.29066 L9.90707 2.48388 L8.66207 2.05517 L7.33793 2.05517 L6.09293 2.48388 L5.05731 3.29066 L4.33575 4.39585 L4.01386 5.66724 L4.12308 6.98462 L4.64966 8.18523 L5.54061 9.15459 L6.70270 9.78378 L8.00000 10.00000 L9.29730 9.78378 L10.45939 9.15459 L11.35034 8.18523 L11.87692 6.98462 z M22.01461 5.66487 L21.69042 4.38440 L20.96371 3.27130 L19.92070 2.45877 L18.66680 2.02700 L17.33320 2.02700 L16.07930 2.45877 L15.03629 3.27130 L14.30958 4.38440 L13.98539 5.66487 L14.09538 6.99165 L14.62573 8.20084 L15.52304 9.17712 L16.69344 9.81081 L18.00000 10.02857 L19.30656 9.81081 L20.47696 9.17712 L21.37427 8.20084 L21.90462 6.99165 z M32.03858 5.66287 L31.71246 4.37475 L30.98141 3.25501 L29.93217 2.43762 L28.67078 2.00327 L27.32922 2.00327 L26.06783 2.43762 L25.01859 3.25501 L24.28754 4.37475 L23.96142 5.66287 L24.07206 6.99757 L24.60558 8.21399 L25.50825 9.19609 L26.68563 9.83357 L28.00000 10.05263 L29.31437 9.83357 L30.49175 9.19609 L31.39442 8.21399 L31.92794 6.99757 z M42.06279 5.66085 L41.73472 4.36501 L40.99929 3.23855 L39.94375 2.41627 L38.67480 1.97931 L37.32520 1.97931 L36.05625 2.41627 L35.00071 3.23855 L34.26528 4.36501 L33.93721 5.66085 L34.04852 7.00355 L34.58523 8.22726 L35.49332 9.21525 L36.67775 9.85655 L38.00000 10.07692 L39.32225 9.85655 L40.50668 9.21525 L41.41477 8.22726 L41.95148 7.00355 z M52.08579 5.65893 L51.75585 4.35575 L51.01626 3.22292 L49.95475 2.39598 L48.67862 1.95655 L47.32138 1.95655 L46.04525 2.39598 L44.98374 3.22292 L44.24415 4.35575 L43.91421 5.65893 L44.02615 7.00923 L44.56591 8.23987 L45.47913 9.23345 L46.67027 9.87838 L48.00000 10.10000 L49.32973 9.87838 L50.52087 9.23345 L51.43409 8.23987 L51.97385 7.00923 z M62.11070 5.65685 L61.77876 4.34573 L61.03465 3.20599 L59.96667 2.37401 L58.68276 1.93190 L57.31724 1.93190 L56.03333 2.37401 L54.96535 3.20599 L54.22124 4.34573 L53.88930 5.65685 L54.00192 7.01538 L54.54497 8.25352 L55.46376 9.25317 L56.66216 9.90203 L58.00000 10.12500 L59.33784 9.90203 L60.53624 9.25317 L61.45503 8.25352 L61.99808 7.01538 z M72.15385 6.00000 L71.95177 4.72017 L71.36316 3.56205 L70.43795 2.63684 L69.27983 2.04823 L68.00000 1.84615 L66.72017 2.04823 L65.56205 2.63684 L64.63684 3.56205 L64.04823 4.72017 L63.84615 6.00000 L64.04823 7.27983 L64.63684 8.43795 L65.56205 9.36316 L66.72017 9.95177 L68.00000 10.15385 L69.27983 9.95177 L70.43795 9.36316 L71.36316 8.43795 L71.95177 7.27983 z M82.17647 6.00000 L81.97329 4.71320 L81.38148 3.54877 L80.45123 2.61852 L79.28680 2.02671 L78.00000 1.82353 L76.71320 2.02671 L75.54877 2.61852 L74.61852 3.54877 L74.02671 4.71320 L73.82353 6.00000 L74.02671 7.28680 L74.61852 8.45123 L75.54877 9.38148 L76.71320 9.97329 L78.00000 10.17647 L79.28680 9.97329 L80.45123 9.38148 L81.38148 8.45123 L81.97329 7.28680 z M92.20000 6.00000 L91.99568 4.70595 L91.40053 3.53496 L90.46504 2.59947 L89.29405 2.00432 L88.00000 1.80000 L86.70595 2.00432 L85.53496 2.59947 L84.59947 3.53496 L84.00432 4.70595 L83.80000 6.00000 L84.00432 7.29405 L84.59947 8.46504 L85.53496 9.40053 L86.70595 9.99568 L88.00000 10.20000 L89.29405 9.99568 L90.46504 9.40053 L91.40053 8.46504 L91.99568 7.29405 z M102.22222 6.00000 L102.01682 4.69910 L101.41852 3.52192 L100.47808 2.58148 L99.30090 1.98318 L98.00000 1.77778 L96.69910 1.98318 L95.52192 2.58148 L94.58148 3.52192 L93.98318 4.69910 L93.77778 6.00000 L93.98318 7.30090 L94.58148 8.47808 L95.52192 9.41852 L96.69910 10.01682 L98.00000 10.22222 L99.30090 10.01682 L100.47808 9.41852 L101.41852 8.47808 L102.01682 7.30090 z M112.25000 6.00000 L112.04324 4.69054 L111.44101 3.50562 L110.49438 2.55899 L109.30946 1.95676 L108.00000 1.75000 L106.69054 1.95676 L105.50562 2.55899 L104.55899 3.50562 L103.95676 4.69054 L103.75000 6.00000 L103.95676 7.30946 L104.55899 8.49438 L105.50562 9.44101 L106.69054 10.04324 L108.00000 10.25000 L109.30946 10.04324 L110.49438 9.44101 L111.44101 8.49438 L112.04324 7.30946 z"/>
</svg>