<?xml version="1.0" encoding="UTF-8"?>
<!-- Generated by jsxcad -->
<!DOCTYPE svg PUBLIC "-//W3C//DTD SVG 1.1 Tiny//EN" "http://www.w3.org/Graphics/SVG/1.1/DTD/svg11-tiny.dtd">
<svg baseProfile="tiny" height="12.00000mm" width="130.00000mm" viewBox="-0.00000 -0.00000 130.00000 12.00000" version="1.1" stroke="black" stroke-width=".1" fill="none" xmlns="http://www.w3.org/2000/svg">
<path fill="#000000" stroke="#000000" d="M0.00000 0.00000 L130.00000 0.00000 L130.00000 12.00000 L0.00000 12.00000 z M13.98614 5.66724 L13.66425 4.39585 L12.94269 3.29066 L11.90707 2.48388 L10.66207 2.05517 L9.33793 2.05517 L8.09293 2.48388 L7.05731 3.29066 L6.33575 4.39585 L6.01386 5.66724 L6.12308 6.98462 L6.64966 8.18523 L7.54061 9.15459 L8.70270 9.78378 L10.00000 10.00000 L11.29730 9.78378 L12.45939 9.15459 L13.35034 8.18523 L13.87692 6.98462 z M24.01461 5.66487 L23.69042 4.38440 L22.96371 3.27130 L21.92070 2.45877 L20.66680 2.02700 L19.33320 2.02700 L18.07930 2.45877 L17.03629 3.27130 L16.30958 4.38440 L15.98539 5.66487 L16.09538 6.99165 L16.62573 8.20084 L17.52304 9.17712 L18.69344 9.81081 L20.00000 10.02857 L21.30656 9.81081 L22.47696 9.17712 L23.37427 8.20084 L23.90462 6.99165 z M34.03858 5.66287 L33.71246 4.37475 L32.98141 3.25501 L31.93217 2.43762 L30.67078 2.00327 L29.32922 2.00327 L28.06783 2.43762 L27.01859 3.25501 L26.28754 4.37475 L25.96142 5.66287 L26.07206 6.99757 L26.60558 8.21399 L27.50825 9.19609 L28.68563 9.83357 L30.00000 10.05263 L31.31437 9.83357 L32.49175 9.19609 L33.39442 8.21399 L33.92794 6.99757 z M44.06279 5.66085 L43.73472 4.36501 L42.99929 3.23855 L41.94375 2.41627 L40.67480 1.97931 L39.32520 1.97931 L38.05625 2.41627 L37.00071 3.23855 L36.26528 4.36501 L35.93721 5.66085 L36.04852 7.00355 L36.58523 8.22726 L37.49332 9.21525 L38.67775 9.85655 L40.00000 10.07692 L41.32225 9.85655 L42.50668 9.21525 L43.41477 8.22726 L43.95148 7.00355 z M54.08579 5.65893 L53.75585 4.35575 L53.01626 3.22292 L51.95475 2.39598 L50.67862 1.95655 L49.32138 1.95655 L48.04525 2.39598 L46.98374 3.22292 L46.24415 4.35575 L45.91421 5.65893 L46.02615 7.00923 L46.56591 8.23987 L47.47913 9.23345 L48.67027 9.87838 L50.00000 10.10000 L51.32973 9.87838 L52.52087 9.23345 L53.43409 8.23987 L53.97385 7.00923 z M64.11070 5.65685 L63.77876 4.34573 L63.03465 3.20599 L61.96667 2.37401 L60.68276 1.93190 L59.31724 1.93190 L58.03333 2.37401 L56.96535 3.20599 L56.22124 4.34573 L55.88930 5.65685 L56.00192 7.01538 L56.54497 8.25352 L57.46376 9.25317 L58.66216 9.90203 L60.00000 10.12500 L61.33784 9.90203 L62.53624 9.25317 L63.45503 8.25352 L63.99808 7.01538 z M74.15385 6.00000 L73.95177 4.72017 L73.36316 3.56205 L72.43795 2.63684 L71.27983 2.04823 L70.00000 1.84615 L68.72017 2.04823 L67.56205 2.63684 L66.63684 3.56205 L66.04823 4.72017 L65.84615 6.00000 L66.04823 7.27983 L66.63684 8.43795 L67.56205 9.36316 L68.72017 9.95177 L70.00000 10.15385 L71.27983 9.95177 L72.43795 9.36316 L73.36316 8.43795 L73.95177 7.27983 z M84.17647 6.00000 L83.97329 4.71320 L83.38148 3.54877 L82.45123 2.61852 L81.28680 2.02671 L80.00000 1.82353 L78.71320 2.02671 L77.54877 2.61852 L76.61852 3.54877 L76.02671 4.71320 L75.82353 6.00000 L76.02671 7.28680 L76.61852 8.45123 L77.54877 9.38148 L78.71320 9.97329 L80.00000 10.17647 L81.28680 9.97329 L82.45123 9.38148 L83.38148 8.45123 L83.97329 7.28680 z M94.20000 6.00000 L93.99568 4.70595 L93.40053 3.53496 L92.46504 2.59947 L91.29405 2.00432 L90.00000 1.80000 L88.70595 2.00432 L87.53496 2.59947 L86.59947 3.53496 L86.00432 4.70595 L85.80000 6.00000 L86.00432 7.29405 L86.59947 8.46504 L87.53496 9.40053 L88.70595 9.99568 L90.00000 10.20000 L91.29405 9.99568 L92.46504 9.40053 L93.40053 8.46504 L93.99568 7.29405 z M104.22222 6.00000 L104.01682 4.69910 L103.41852 3.52192 L102.47808 2.58148 L101.30090 1.98318 L100.00000 1.77778 L98.69910 1.98318 L97.52192 2.58148 L96.58148 3.52192 L95.98318 4.69910 L95.77778 6.00000 L95.98318 7.30090 L96.58148 8.47808 L97.52192 9.41852 L98.69910 10.01682 L100.00000 10.22222 L101.30090 10.01682 L102.47808 9.41852 L103.41852 8.47808 L104.01682 7.30090 z M114.25000 6.00000 L114.04324 4.69054 L113.44101 3.50562 L112.49438 2.55899 L111.30946 1.95676 L110.00000 1.75000 L108.69054 1.95676 L107.50562 2.55899 L106.55899 3.50562 L105.95676 4.69054 L105.75000 6.00000 L105.95676 7.30946 L106.55899 8.49438 L107.50562 9.44101 L108.69054 10.04324 L110.00000 10.25000 L111.30946 10.04324 L112.49438 9.44101 L113.44101 8.49438 L114.04324 7.30946 z"/>
</svg>